# Blender v2.90.1 OBJ File: 'skybox.blend'
# www.blender.org
mtllib Geometry\Skybox\skybox2.mtl
o Cube.001
v -62.270622 13.211470 -5.307560
v 0.729378 13.211458 57.692440
v 0.729378 13.211470 -5.307560
v -62.270622 -49.788544 57.692429
v 0.729378 -49.788544 57.692429
v -62.270622 13.211458 57.692440
v -62.270622 -49.788528 -5.307571
v 0.729378 -49.788528 -5.307571
vt 0.501733 1.001318
vt 0.250308 0.670614
vt 0.498942 0.670415
vt -0.004222 0.333251
vt 0.250109 0.333714
vt 0.995403 0.670017
vt 0.744551 0.333701
vt 0.998767 0.334485
vt 0.501011 0.333418
vt 0.250682 0.000584
vt 0.501319 -0.000037
vt 0.743365 0.671277
vt 0.250894 0.999953
vt -0.004946 0.669970
vn 0.0000 1.0000 0.0000
vn 0.0000 -0.0000 1.0000
vn -1.0000 0.0000 0.0000
vn 0.0000 -1.0000 -0.0000
vn 1.0000 0.0000 0.0000
vn 0.0000 0.0000 -1.0000
g Cube.001_Cube.001_Material.001
usemtl Material.001
s 1
f 1/1/1 2/2/1 3/3/1
f 2/2/2 4/4/2 5/5/2
f 6/6/3 7/7/3 4/8/3
f 8/9/4 4/10/4 7/11/4
f 3/3/5 5/5/5 8/9/5
f 1/12/6 8/9/6 7/7/6
f 1/1/1 6/13/1 2/2/1
f 2/2/2 6/14/2 4/4/2
f 6/6/3 1/12/3 7/7/3
f 8/9/4 5/5/4 4/10/4
f 3/3/5 2/2/5 5/5/5
f 1/12/6 3/3/6 8/9/6
